<svg width="432" height="311" viewBox="0 0 432 311" fill="none" xmlns="http://www.w3.org/2000/svg">
<g filter="url(#filter0_f_214_2)">
<g filter="url(#filter1_d_214_2)">
<path d="M324.752 278.763H181.728C167.854 278.752 154.521 273.375 144.522 263.757C134.522 254.139 128.631 241.025 128.082 227.162C127.532 213.298 132.367 199.759 141.573 189.38C150.78 179 163.645 172.584 177.475 171.476C179.448 157.549 185.736 144.592 195.457 134.426C205.177 124.26 217.841 117.397 231.665 114.804C245.489 112.21 259.778 114.016 272.523 119.967C285.267 125.917 295.825 135.714 302.712 147.979C315.342 143.607 328.988 143.096 341.91 146.511C354.832 149.927 366.443 157.114 375.263 167.156C384.084 177.199 389.712 189.64 391.432 202.895C393.152 216.149 390.885 229.616 384.919 241.576C381.419 252.382 374.585 261.802 365.398 268.483C356.212 275.163 345.145 278.762 333.786 278.763H324.752Z" fill="url(#paint0_linear_214_2)"/>
<path d="M333.786 278.015C339.553 278.015 345.224 277.095 350.64 275.278C355.878 273.522 360.795 270.959 365.255 267.661C369.664 264.4 373.529 260.494 376.742 256.052C379.996 251.554 382.508 246.607 384.208 241.346L384.226 241.292L384.251 241.242C386.513 236.723 388.254 231.943 389.427 227.034C390.634 221.983 391.246 216.764 391.246 211.521C391.246 207.009 390.792 202.5 389.895 198.12C389.022 193.851 387.718 189.652 386.021 185.639C384.355 181.699 382.292 177.899 379.89 174.344C377.512 170.823 374.78 167.512 371.77 164.503C368.761 161.494 365.45 158.762 361.929 156.383C358.374 153.981 354.574 151.919 350.634 150.252C346.622 148.555 342.423 147.252 338.154 146.378C333.773 145.482 329.264 145.027 324.752 145.027C317.281 145.027 309.948 146.257 302.956 148.681L302.366 148.886L302.06 148.342C296.37 138.224 288.094 129.728 278.125 123.77C273.084 120.757 267.668 118.429 262.027 116.85C256.208 115.221 250.164 114.395 244.062 114.395C235.855 114.395 227.844 115.872 220.251 118.785C212.916 121.6 206.187 125.665 200.251 130.868C194.349 136.041 189.452 142.145 185.694 149.01C181.844 156.044 179.328 163.636 178.215 171.576L178.132 172.171L177.534 172.218C170.841 172.742 164.401 174.504 158.394 177.455C152.558 180.323 147.345 184.202 142.903 188.984C133.774 198.811 128.747 211.614 128.747 225.035C128.747 232.187 130.148 239.126 132.91 245.657C134.238 248.796 135.882 251.824 137.795 254.656C139.69 257.462 141.867 260.1 144.265 262.498C146.663 264.895 149.301 267.072 152.106 268.968C154.939 270.881 157.966 272.524 161.106 273.852C167.637 276.615 174.575 278.015 181.728 278.015H324.752H333.786ZM333.786 278.763H324.752H181.728C152.055 278.763 128 254.708 128 225.035C128 196.793 149.79 173.64 177.475 171.473C182.055 138.794 210.122 113.648 244.062 113.648C269.242 113.648 291.189 127.487 302.711 147.976C309.616 145.581 317.032 144.28 324.752 144.28C361.888 144.28 391.993 174.385 391.993 211.521C391.993 222.324 389.446 232.531 384.919 241.576C377.943 263.155 357.687 278.763 333.786 278.763Z" fill="white" fill-opacity="0.5"/>
</g>
<path d="M108.148 214.763C162.548 214.763 206.648 170.439 206.648 115.763C206.648 61.0868 162.548 16.7629 108.148 16.7629C53.7479 16.7629 9.64795 61.0868 9.64795 115.763C9.64795 170.439 53.7479 214.763 108.148 214.763Z" fill="#FA9E42"/>
<g filter="url(#filter2_f_214_2)">
<path d="M101.03 101.684C133.767 84.2964 152.077 54.7096 141.928 35.6004C131.778 16.4912 97.0115 15.0957 64.2749 32.4835C31.5383 49.8714 13.228 79.4581 23.3778 98.5674C33.5275 117.677 68.2938 119.072 101.03 101.684Z" fill="#F8E36F"/>
</g>
</g>
<defs>
<filter id="filter0_f_214_2" x="5.64795" y="12.7629" width="390.345" height="270" filterUnits="userSpaceOnUse" color-interpolation-filters="sRGB">
<feFlood flood-opacity="0" result="BackgroundImageFix"/>
<feBlend mode="normal" in="SourceGraphic" in2="BackgroundImageFix" result="shape"/>
<feGaussianBlur stdDeviation="2" result="effect1_foregroundBlur_214_2"/>
</filter>
<filter id="filter1_d_214_2" x="108" y="85.6482" width="323.993" height="225.115" filterUnits="userSpaceOnUse" color-interpolation-filters="sRGB">
<feFlood flood-opacity="0" result="BackgroundImageFix"/>
<feColorMatrix in="SourceAlpha" type="matrix" values="0 0 0 0 0 0 0 0 0 0 0 0 0 0 0 0 0 0 127 0" result="hardAlpha"/>
<feOffset dx="10" dy="2"/>
<feGaussianBlur stdDeviation="15"/>
<feColorMatrix type="matrix" values="0 0 0 0 0.258824 0 0 0 0 0.627451 0 0 0 0 0.941176 0 0 0 0.596 0"/>
<feBlend mode="normal" in2="BackgroundImageFix" result="effect1_dropShadow_214_2"/>
<feBlend mode="normal" in="SourceGraphic" in2="effect1_dropShadow_214_2" result="shape"/>
</filter>
<filter id="filter2_f_214_2" x="0.577637" y="0.303223" width="164.15" height="133.561" filterUnits="userSpaceOnUse" color-interpolation-filters="sRGB">
<feFlood flood-opacity="0" result="BackgroundImageFix"/>
<feBlend mode="normal" in="SourceGraphic" in2="BackgroundImageFix" result="shape"/>
<feGaussianBlur stdDeviation="10" result="effect1_foregroundBlur_214_2"/>
</filter>
<linearGradient id="paint0_linear_214_2" x1="260.015" y1="113.65" x2="336.702" y2="299.06" gradientUnits="userSpaceOnUse">
<stop stop-color="white" stop-opacity="0.604"/>
<stop offset="1" stop-color="white" stop-opacity="0.2"/>
</linearGradient>
</defs>
</svg>
