<svg width="443" height="311" viewBox="0 0 443 311" fill="none" xmlns="http://www.w3.org/2000/svg">
<g filter="url(#filter0_f_7_11206)">
<g filter="url(#filter1_d_7_11206)">
<path d="M327.882 279H169.498C154.134 278.988 139.37 273.034 128.296 262.382C117.223 251.731 110.699 237.209 110.09 221.857C109.482 206.504 114.836 191.512 125.031 180.017C135.227 168.523 149.474 161.418 164.789 160.19C166.973 144.768 173.937 130.419 184.702 119.161C195.466 107.904 209.489 100.304 224.798 97.4319C240.107 94.5596 255.931 96.5592 270.044 103.149C284.157 109.739 295.849 120.588 303.475 134.17C317.462 129.328 332.574 128.762 346.883 132.545C361.193 136.327 374.052 144.287 383.819 155.407C393.586 166.528 399.82 180.306 401.724 194.984C403.629 209.662 401.118 224.575 394.512 237.82C390.635 249.786 383.067 260.217 372.894 267.615C362.721 275.014 350.466 278.999 337.887 279H327.882Z" fill="url(#paint0_linear_7_11206)"/>
<path d="M337.887 278.172C344.273 278.172 350.553 277.153 356.551 275.141C362.351 273.196 367.796 270.358 372.736 266.705C377.618 263.095 381.898 258.77 385.456 253.85C389.059 248.869 391.841 243.39 393.724 237.565L393.744 237.505L393.772 237.449C396.276 232.445 398.205 227.152 399.504 221.716C400.84 216.123 401.518 210.343 401.518 204.537C401.518 199.54 401.015 194.547 400.022 189.696C399.055 184.969 397.611 180.319 395.732 175.875C393.886 171.512 391.602 167.304 388.943 163.367C386.308 159.468 383.283 155.801 379.951 152.469C376.618 149.137 372.951 146.111 369.052 143.477C365.116 140.817 360.907 138.533 356.544 136.688C352.101 134.808 347.451 133.365 342.723 132.398C337.872 131.405 332.879 130.901 327.883 130.901C319.609 130.901 311.488 132.263 303.746 134.948L303.092 135.175L302.753 134.572C296.453 123.368 287.287 113.959 276.248 107.362C270.665 104.025 264.668 101.447 258.421 99.6984C251.977 97.8946 245.284 96.98 238.527 96.98C229.439 96.98 220.567 98.6157 212.159 101.842C204.035 104.958 196.584 109.46 190.01 115.222C183.475 120.951 178.051 127.71 173.89 135.312C169.627 143.101 166.84 151.509 165.608 160.302L165.516 160.96L164.853 161.012C157.442 161.592 150.311 163.544 143.659 166.812C137.195 169.988 131.423 174.284 126.503 179.579C116.395 190.461 110.827 204.639 110.827 219.502C110.827 227.423 112.378 235.106 115.438 242.339C116.908 245.815 118.728 249.168 120.847 252.304C122.946 255.411 125.356 258.333 128.012 260.988C130.667 263.643 133.588 266.054 136.695 268.153C139.832 270.272 143.185 272.092 146.661 273.562C153.894 276.621 161.577 278.172 169.498 278.172H327.883H337.887ZM337.887 279H327.883H169.498C136.638 279 110 252.361 110 219.502C110 188.226 134.13 162.587 164.789 160.187C169.86 123.999 200.941 96.1526 238.527 96.1526C266.411 96.1526 290.715 111.478 303.475 134.167C311.121 131.515 319.333 130.074 327.883 130.074C369.007 130.074 402.345 163.413 402.345 204.537C402.345 216.5 399.525 227.803 394.511 237.82C386.786 261.716 364.355 279 337.887 279Z" fill="white" fill-opacity="0.5"/>
</g>
<path d="M107.268 6.72311C114.278 6.72135 121.27 7.42963 128.137 8.83711C141.39 11.5668 153.974 16.8888 165.164 24.4971C180.667 35.0048 193.053 49.4945 201.021 66.4436C208.989 83.3926 212.244 102.175 210.444 120.817C208.644 139.458 201.856 157.271 190.793 172.383C179.73 187.495 164.801 199.347 147.574 206.695C141.312 209.356 134.8 211.388 128.136 212.76C113.685 215.69 98.7754 215.508 84.4005 212.224C70.0257 208.941 56.5155 202.632 44.77 193.718C33.0244 184.804 23.3132 173.489 16.2832 160.528C9.25319 147.566 5.06578 133.256 3.99992 118.549C15.3314 121.201 27.1023 121.372 38.5059 119.049C48.7389 116.953 58.4592 112.863 67.1119 107.012C79.9742 98.3288 90.0422 86.1017 96.0959 71.8121C98.1414 66.9726 99.7027 61.9424 100.757 56.7951C103.004 45.7664 102.921 34.3898 100.513 23.3951C99.3016 17.8974 97.5102 12.5437 95.1689 7.42412C99.185 6.95677 103.225 6.7227 107.268 6.72311V6.72311Z" fill="#713FFD"/>
<g filter="url(#filter2_f_7_11206)">
<path d="M177.339 38.8961C154.095 17.9666 123.644 13.8914 109.325 29.7938C95.0065 45.6962 102.242 75.5544 125.487 96.4839C148.732 117.413 179.182 121.489 193.501 105.586C207.82 89.6838 200.584 59.8256 177.339 38.8961Z" fill="#A586FC"/>
</g>
</g>
<defs>
<filter id="filter0_f_7_11206" x="0" y="2.72314" width="406.345" height="280.277" filterUnits="userSpaceOnUse" color-interpolation-filters="sRGB">
<feFlood flood-opacity="0" result="BackgroundImageFix"/>
<feBlend mode="normal" in="SourceGraphic" in2="BackgroundImageFix" result="shape"/>
<feGaussianBlur stdDeviation="2" result="effect1_foregroundBlur_7_11206"/>
</filter>
<filter id="filter1_d_7_11206" x="90" y="68.1526" width="352.345" height="242.847" filterUnits="userSpaceOnUse" color-interpolation-filters="sRGB">
<feFlood flood-opacity="0" result="BackgroundImageFix"/>
<feColorMatrix in="SourceAlpha" type="matrix" values="0 0 0 0 0 0 0 0 0 0 0 0 0 0 0 0 0 0 127 0" result="hardAlpha"/>
<feOffset dx="10" dy="2"/>
<feGaussianBlur stdDeviation="15"/>
<feColorMatrix type="matrix" values="0 0 0 0 0.258824 0 0 0 0 0.627451 0 0 0 0 0.941176 0 0 0 0.596 0"/>
<feBlend mode="normal" in2="BackgroundImageFix" result="effect1_dropShadow_7_11206"/>
<feBlend mode="normal" in="SourceGraphic" in2="effect1_dropShadow_7_11206" result="shape"/>
</filter>
<filter id="filter2_f_7_11206" x="81.9736" y="0.0932617" width="138.879" height="135.194" filterUnits="userSpaceOnUse" color-interpolation-filters="sRGB">
<feFlood flood-opacity="0" result="BackgroundImageFix"/>
<feBlend mode="normal" in="SourceGraphic" in2="BackgroundImageFix" result="shape"/>
<feGaussianBlur stdDeviation="10" result="effect1_foregroundBlur_7_11206"/>
</filter>
<linearGradient id="paint0_linear_7_11206" x1="256.194" y1="96.1545" x2="341.117" y2="301.476" gradientUnits="userSpaceOnUse">
<stop stop-color="white" stop-opacity="0.604"/>
<stop offset="1" stop-color="white" stop-opacity="0.2"/>
</linearGradient>
</defs>
</svg>
