<svg width="24" height="24" viewBox="0 0 24 24" fill="none" xmlns="http://www.w3.org/2000/svg">
<path fill-rule="evenodd" clip-rule="evenodd" d="M11.2023 5.019C11.0407 4.98705 10.8737 4.99553 10.7161 5.04368C10.5586 5.09183 10.4153 5.17816 10.2992 5.29501C10.2129 5.3818 10.1114 5.45201 9.99979 5.50217L6.66591 7H11.0042C11.1689 7.00069 11.3313 6.96067 11.4769 6.88349C11.6224 6.8063 11.7466 6.69435 11.8385 6.55759C11.9304 6.42082 11.987 6.26347 12.0034 6.09954C12.0198 5.9356 11.9954 5.77015 11.9325 5.6179C11.8695 5.46565 11.7699 5.33131 11.6426 5.22683C11.5152 5.12235 11.3639 5.05095 11.2023 5.019ZM10.1316 3.131C10.6043 2.98655 11.1053 2.96112 11.5902 3.05698C12.0751 3.15283 12.5288 3.36701 12.9109 3.68046C13.2931 3.99391 13.5919 4.39692 13.7807 4.85368C13.9696 5.31043 14.0427 5.80678 13.9935 6.29858C13.9443 6.79039 13.7743 7.26243 13.4988 7.67273C13.2232 8.08303 12.8505 8.41888 12.4138 8.65044C11.9779 8.88162 11.4916 9.00168 10.9982 9C10.9974 9 10.9966 8.99999 10.9958 8.99999L11 8V9H10.9982H1.99998C1.52845 9 1.121 8.67061 1.02218 8.20956C0.923369 7.7485 1.16005 7.28107 1.59016 7.08783L9.02883 3.74582C8.97801 3.79044 8.92863 3.83685 8.88078 3.88499L9.58998 4.59L9.18016 3.67783L9.02883 3.74582C9.34805 3.46549 9.72381 3.25562 10.1316 3.131ZM19.7889 8.02897C19.5472 7.98076 19.2973 7.99287 19.0613 8.06421C18.8254 8.13555 18.6107 8.26393 18.4362 8.438C18.0452 8.82803 17.412 8.82723 17.022 8.43621C16.6319 8.04519 16.6327 7.41203 17.0238 7.022C17.431 6.61584 17.932 6.31628 18.4825 6.14981C19.033 5.98335 19.616 5.95511 20.18 6.0676C20.7441 6.18008 21.2717 6.42982 21.7162 6.79473C22.1607 7.15964 22.5085 7.62847 22.7287 8.15976C22.949 8.69105 23.0349 9.26843 22.9789 9.84082C22.9229 10.4132 22.7267 10.963 22.4076 11.4415C22.0886 11.92 21.6566 12.3126 21.1497 12.5844C20.6429 12.8562 20.0769 12.999 19.5018 13L19.5 13H1.99998C1.44769 13 0.999977 12.5523 0.999977 12C0.999977 11.4477 1.44769 11 1.99998 11H19.4989C19.7451 10.9994 19.9875 10.9383 20.2045 10.8219C20.4217 10.7054 20.6068 10.5372 20.7436 10.3321C20.8803 10.127 20.9644 9.89138 20.9884 9.64607C21.0124 9.40076 20.9756 9.15331 20.8812 8.92561C20.7868 8.69792 20.6377 8.49699 20.4472 8.3406C20.2567 8.18421 20.0306 8.07718 19.7889 8.02897ZM13.998 15C14.4915 14.9983 14.9778 15.1184 15.4138 15.3496C15.8505 15.5811 16.2232 15.917 16.4988 16.3273C16.7743 16.7376 16.9443 17.2096 16.9935 17.7014C17.0427 18.1932 16.9696 18.6896 16.7807 19.1463C16.5919 19.6031 16.2931 20.0061 15.9109 20.3195C15.5288 20.633 15.0751 20.8472 14.5902 20.943C14.1053 21.0389 13.6043 21.0134 13.1316 20.869C12.744 20.7505 12.3853 20.5551 12.0766 20.2953L1.69347 16.9519C1.22478 16.8009 0.935698 16.3313 1.01208 15.8449C1.08847 15.3584 1.50758 15 1.99998 15H13.998ZM14.4769 17.1165C14.3313 17.0393 14.1689 16.9993 14.0042 17L14 17H8.36815L12.8965 18.4581C13.0485 18.5071 13.1866 18.5917 13.2992 18.705C13.4153 18.8218 13.5586 18.9082 13.7161 18.9563C13.8737 19.0045 14.0407 19.0129 14.2023 18.981C14.3639 18.949 14.5152 18.8777 14.6426 18.7732C14.7699 18.6687 14.8695 18.5343 14.9325 18.3821C14.9954 18.2298 15.0198 18.0644 15.0034 17.9005C14.987 17.7365 14.9304 17.5792 14.8385 17.4424C14.7466 17.3056 14.6224 17.1937 14.4769 17.1165Z" fill="white"/>
</svg>
