<?xml version="1.1" encoding="UTF-8" standalone="no"?>
<svg xmlns="http://www.w3.org/2000/svg"><symbol id="download-cloud" width="24" height="24" viewBox="0 0 24 24"><g clip-path="url(#clip0_10_1175)"><path fill-rule="evenodd" clip-rule="evenodd" d="M7.29289 16.2929C7.68342 15.9024 8.31658 15.9024 8.70711 16.2929L12 19.5858L15.2929 16.2929C15.6834 15.9024 16.3166 15.9024 16.7071 16.2929C17.0976 16.6834 17.0976 17.3166 16.7071 17.7071L12.7071 21.7071C12.3166 22.0976 11.6834 22.0976 11.2929 21.7071L7.29289 17.7071C6.90237 17.3166 6.90237 16.6834 7.29289 16.2929Z"></path><path fill-rule="evenodd" clip-rule="evenodd" d="M12 11C12.5523 11 13 11.4477 13 12V21C13 21.5523 12.5523 22 12 22C11.4477 22 11 21.5523 11 21V12C11 11.4477 11.4477 11 12 11Z"></path><path fill-rule="evenodd" clip-rule="evenodd" d="M8.66758 1.99416C10.0281 1.94524 11.3819 2.20558 12.6272 2.7556C13.8725 3.30562 14.9768 4.13098 15.857 5.16955C16.5675 6.0079 17.117 6.96756 17.4804 8L17.9992 8C19.2743 7.99917 20.5174 8.40459 21.5465 9.15747C22.5759 9.91051 23.3385 10.972 23.7237 12.1878C24.1089 13.4036 24.0967 14.7106 23.6888 15.919C23.2808 17.1274 22.4985 18.1744 21.4552 18.908C21.0034 19.2257 20.3797 19.117 20.062 18.6652C19.7443 18.2134 19.853 17.5897 20.3048 17.272C21.0003 16.7829 21.5219 16.0849 21.7938 15.2793C22.0657 14.4737 22.0739 13.6024 21.8171 12.7919C21.5603 11.9813 21.0519 11.2737 20.3656 10.7716C19.6794 10.2696 18.851 9.99934 18.0008 10H16.74C16.2834 10 15.8848 9.69078 15.7714 9.24854C15.5082 8.22293 15.0158 7.27038 14.3312 6.46261C13.6467 5.65484 12.7878 5.0129 11.8192 4.5851C10.8506 4.15731 9.79761 3.95482 8.73946 3.99287C7.68131 4.03092 6.64557 4.30853 5.71023 4.80479C4.77489 5.30105 3.96432 6.00304 3.33954 6.85789C2.71475 7.71275 2.29204 8.69821 2.10323 9.74007C1.91441 10.7819 1.96441 11.8531 2.24946 12.8728C2.5345 13.8926 3.04718 14.8344 3.74887 15.6273C4.11488 16.0409 4.07629 16.6729 3.6627 17.0389C3.24911 17.4049 2.61712 17.3663 2.25111 16.9527C1.34893 15.9332 0.689783 14.7223 0.323292 13.4112C-0.0431988 12.1001 -0.107481 10.723 0.135283 9.38342C0.378048 8.04388 0.921534 6.77687 1.72483 5.67776C2.52812 4.57866 3.57028 3.67611 4.77286 3.03806C5.97544 2.40001 7.3071 2.04309 8.66758 1.99416Z"></path></g><defs><clipPath><rect width="24" height="24"></rect></clipPath></defs></symbol><symbol id="droplet" width="24" height="24" viewBox="0 0 24 24"><path fill-rule="evenodd" clip-rule="evenodd" d="M11.9996 1.69C12.2649 1.68988 12.5195 1.79525 12.7071 1.98289L18.3669 7.64266C18.367 7.64274 18.3668 7.64259 18.3669 7.64266C19.626 8.90106 20.4839 10.5048 20.8316 12.2507C21.1794 13.9967 21.0015 15.8066 20.3205 17.4515C19.6395 19.0964 18.4859 20.5023 17.0058 21.4915C15.5256 22.4807 13.7853 23.0087 12.005 23.0087C10.2247 23.0087 8.48443 22.4807 7.00426 21.4915C5.52409 20.5023 4.37054 19.0964 3.68953 17.4515C3.00851 15.8066 2.83063 13.9967 3.17837 12.2507C3.52606 10.505 4.3836 8.90161 5.64253 7.64326C5.64273 7.64306 5.64233 7.64346 5.64253 7.64326L11.2923 1.98352C11.4798 1.79571 11.7342 1.69012 11.9996 1.69ZM12.0006 4.10484L7.05688 9.05734C6.07746 10.0361 5.41032 11.2834 5.13985 12.6414C4.86938 13.9994 5.00773 15.4071 5.53741 16.6864C6.06709 17.9658 6.9643 19.0593 8.11554 19.8287C9.26678 20.598 10.6203 21.0087 12.005 21.0087C13.3897 21.0087 14.7432 20.598 15.8945 19.8287C17.0457 19.0593 17.9429 17.9658 18.4726 16.6864C19.0023 15.4071 19.1406 13.9994 18.8702 12.6414C18.5997 11.2834 17.9326 10.0361 16.9531 9.05734L12.0006 4.10484Z"></path></symbol><symbol id="search" width="24" height="24" viewBox="0 0 24 24"><path fill-rule="evenodd" clip-rule="evenodd" d="M11 4C7.13401 4 4 7.13401 4 11C4 14.866 7.13401 18 11 18C14.866 18 18 14.866 18 11C18 7.13401 14.866 4 11 4ZM2 11C2 6.02944 6.02944 2 11 2C15.9706 2 20 6.02944 20 11C20 15.9706 15.9706 20 11 20C6.02944 20 2 15.9706 2 11Z"></path><path fill-rule="evenodd" clip-rule="evenodd" d="M15.9429 15.9429C16.3334 15.5524 16.9666 15.5524 17.3571 15.9429L21.7071 20.2929C22.0977 20.6834 22.0977 21.3166 21.7071 21.7071C21.3166 22.0976 20.6834 22.0976 20.2929 21.7071L15.9429 17.3571C15.5524 16.9666 15.5524 16.3334 15.9429 15.9429Z"></path></symbol><symbol id="eye" width="24" height="24" viewBox="0 0 24 24"><path fill-rule="evenodd" clip-rule="evenodd" d="M2.14074 12C2.25003 12.1889 2.39492 12.4296 2.57441 12.7075C3.03543 13.4213 3.71817 14.3706 4.60454 15.3161C6.39552 17.2264 8.89951 19 12 19C15.1005 19 17.6045 17.2264 19.3955 15.3161C20.2818 14.3706 20.9646 13.4213 21.4256 12.7075C21.6051 12.4296 21.75 12.1889 21.8593 12C21.75 11.8111 21.6051 11.5704 21.4256 11.2925C20.9646 10.5787 20.2818 9.6294 19.3955 8.68394C17.6045 6.77356 15.1005 5 12 5C8.89951 5 6.39552 6.77356 4.60454 8.68394C3.71817 9.6294 3.03543 10.5787 2.57441 11.2925C2.39492 11.5704 2.25003 11.8111 2.14074 12ZM23 12C23.8944 11.5528 23.8943 11.5524 23.8941 11.5521L23.8925 11.5489L23.889 11.542L23.8777 11.5198C23.8681 11.5013 23.8546 11.4753 23.8372 11.4424C23.8025 11.3767 23.752 11.2832 23.686 11.166C23.5542 10.9316 23.3601 10.6015 23.1057 10.2075C22.5979 9.42131 21.8432 8.3706 20.8545 7.31606C18.8955 5.22644 15.8995 3 12 3C8.10049 3 5.10448 5.22644 3.14546 7.31606C2.15683 8.3706 1.40207 9.42131 0.894336 10.2075C0.63985 10.6015 0.445792 10.9316 0.313971 11.166C0.248023 11.2832 0.19754 11.3767 0.162753 11.4424C0.145357 11.4753 0.131875 11.5013 0.122338 11.5198L0.11099 11.542L0.107539 11.5489L0.10637 11.5512C0.106186 11.5516 0.105573 11.5528 1 12L0.105573 11.5528C-0.0351909 11.8343 -0.0351909 12.1657 0.105573 12.4472L1 12C0.105573 12.4472 0.105389 12.4468 0.105573 12.4472L0.107539 12.4511L0.11099 12.458L0.122338 12.4802C0.131875 12.4987 0.145357 12.5247 0.162753 12.5576C0.19754 12.6233 0.248023 12.7168 0.313971 12.834C0.445792 13.0684 0.63985 13.3985 0.894336 13.7925C1.40207 14.5787 2.15683 15.6294 3.14546 16.6839C5.10448 18.7736 8.10049 21 12 21C15.8995 21 18.8955 18.7736 20.8545 16.6839C21.8432 15.6294 22.5979 14.5787 23.1057 13.7925C23.3601 13.3985 23.5542 13.0684 23.686 12.834C23.752 12.7168 23.8025 12.6233 23.8372 12.5576C23.8546 12.5247 23.8681 12.4987 23.8777 12.4802L23.889 12.458L23.8925 12.4511L23.8936 12.4488C23.8938 12.4484 23.8944 12.4472 23 12ZM23 12L23.8944 12.4472C24.0352 12.1657 24.0348 11.8336 23.8941 11.5521L23 12Z"></path><path fill-rule="evenodd" clip-rule="evenodd" d="M12 10C10.8954 10 10 10.8954 10 12C10 13.1046 10.8954 14 12 14C13.1046 14 14 13.1046 14 12C14 10.8954 13.1046 10 12 10ZM8 12C8 9.79086 9.79086 8 12 8C14.2091 8 16 9.79086 16 12C16 14.2091 14.2091 16 12 16C9.79086 16 8 14.2091 8 12Z"></path></symbol><symbol id="map-pin" width="24" height="24" viewBox="0 0 24 24"><path fill-rule="evenodd" clip-rule="evenodd" d="M12 2C9.87827 2 7.84344 2.84285 6.34315 4.34315C4.84285 5.84344 4 7.87827 4 10C4 13.0981 6.01574 16.1042 8.22595 18.4373C9.31061 19.5822 10.3987 20.5195 11.2167 21.1708C11.5211 21.4133 11.787 21.6152 12 21.7726C12.213 21.6152 12.4789 21.4133 12.7833 21.1708C13.6013 20.5195 14.6894 19.5822 15.774 18.4373C17.9843 16.1042 20 13.0981 20 10C20 7.87827 19.1571 5.84344 17.6569 4.34315C16.1566 2.84285 14.1217 2 12 2ZM12 23C11.4453 23.8321 11.445 23.8319 11.4448 23.8317L11.4419 23.8298L11.4352 23.8253L11.4123 23.8098C11.3928 23.7966 11.3651 23.7776 11.3296 23.753C11.2585 23.7038 11.1565 23.6321 11.0278 23.5392C10.7705 23.3534 10.4064 23.0822 9.97082 22.7354C9.10133 22.043 7.93939 21.0428 6.77405 19.8127C4.48426 17.3958 2 13.9019 2 10C2 7.34784 3.05357 4.8043 4.92893 2.92893C6.8043 1.05357 9.34784 0 12 0C14.6522 0 17.1957 1.05357 19.0711 2.92893C20.9464 4.8043 22 7.34784 22 10C22 13.9019 19.5157 17.3958 17.226 19.8127C16.0606 21.0428 14.8987 22.043 14.0292 22.7354C13.5936 23.0822 13.2295 23.3534 12.9722 23.5392C12.8435 23.6321 12.7415 23.7038 12.6704 23.753C12.6349 23.7776 12.6072 23.7966 12.5877 23.8098L12.5648 23.8253L12.5581 23.8298L12.556 23.8312C12.5557 23.8314 12.5547 23.8321 12 23ZM12 23L12.5547 23.8321C12.2188 24.056 11.7807 24.0556 11.4448 23.8317L12 23Z"></path><path fill-rule="evenodd" clip-rule="evenodd" d="M12 8C10.8954 8 10 8.89543 10 10C10 11.1046 10.8954 12 12 12C13.1046 12 14 11.1046 14 10C14 8.89543 13.1046 8 12 8ZM8 10C8 7.79086 9.79086 6 12 6C14.2091 6 16 7.79086 16 10C16 12.2091 14.2091 14 12 14C9.79086 14 8 12.2091 8 10Z"></path></symbol><symbol id="wind" width="24" height="24" viewBox="0 0 24 24"><path fill-rule="evenodd" clip-rule="evenodd" d="M11.2023 5.019C11.0407 4.98705 10.8737 4.99553 10.7161 5.04368C10.5586 5.09183 10.4153 5.17816 10.2992 5.29501C10.2129 5.3818 10.1114 5.45201 9.99979 5.50217L6.66591 7H11.0042C11.1689 7.00069 11.3313 6.96067 11.4769 6.88349C11.6224 6.8063 11.7466 6.69435 11.8385 6.55759C11.9304 6.42082 11.987 6.26347 12.0034 6.09954C12.0198 5.9356 11.9954 5.77015 11.9325 5.6179C11.8695 5.46565 11.7699 5.33131 11.6426 5.22683C11.5152 5.12235 11.3639 5.05095 11.2023 5.019ZM10.1316 3.131C10.6043 2.98655 11.1053 2.96112 11.5902 3.05698C12.0751 3.15283 12.5288 3.36701 12.9109 3.68046C13.2931 3.99391 13.5919 4.39692 13.7807 4.85368C13.9696 5.31043 14.0427 5.80678 13.9935 6.29858C13.9443 6.79039 13.7743 7.26243 13.4988 7.67273C13.2232 8.08303 12.8505 8.41888 12.4138 8.65044C11.9779 8.88162 11.4916 9.00168 10.9982 9C10.9974 9 10.9966 8.99999 10.9958 8.99999L11 8V9H10.9982H1.99998C1.52845 9 1.121 8.67061 1.02218 8.20956C0.923369 7.7485 1.16005 7.28107 1.59016 7.08783L9.02883 3.74582C8.97801 3.79044 8.92863 3.83685 8.88078 3.88499L9.58998 4.59L9.18016 3.67783L9.02883 3.74582C9.34805 3.46549 9.72381 3.25562 10.1316 3.131ZM19.7889 8.02897C19.5472 7.98076 19.2973 7.99287 19.0613 8.06421C18.8254 8.13555 18.6107 8.26393 18.4362 8.438C18.0452 8.82803 17.412 8.82723 17.022 8.43621C16.6319 8.04519 16.6327 7.41203 17.0238 7.022C17.431 6.61584 17.932 6.31628 18.4825 6.14981C19.033 5.98335 19.616 5.95511 20.18 6.0676C20.7441 6.18008 21.2717 6.42982 21.7162 6.79473C22.1607 7.15964 22.5085 7.62847 22.7287 8.15976C22.949 8.69105 23.0349 9.26843 22.9789 9.84082C22.9229 10.4132 22.7267 10.963 22.4076 11.4415C22.0886 11.92 21.6566 12.3126 21.1497 12.5844C20.6429 12.8562 20.0769 12.999 19.5018 13L19.5 13H1.99998C1.44769 13 0.999977 12.5523 0.999977 12C0.999977 11.4477 1.44769 11 1.99998 11H19.4989C19.7451 10.9994 19.9875 10.9383 20.2045 10.8219C20.4217 10.7054 20.6068 10.5372 20.7436 10.3321C20.8803 10.127 20.9644 9.89138 20.9884 9.64607C21.0124 9.40076 20.9756 9.15331 20.8812 8.92561C20.7868 8.69792 20.6377 8.49699 20.4472 8.3406C20.2567 8.18421 20.0306 8.07718 19.7889 8.02897ZM13.998 15C14.4915 14.9983 14.9778 15.1184 15.4138 15.3496C15.8505 15.5811 16.2232 15.917 16.4988 16.3273C16.7743 16.7376 16.9443 17.2096 16.9935 17.7014C17.0427 18.1932 16.9696 18.6896 16.7807 19.1463C16.5919 19.6031 16.2931 20.0061 15.9109 20.3195C15.5288 20.633 15.0751 20.8472 14.5902 20.943C14.1053 21.0389 13.6043 21.0134 13.1316 20.869C12.744 20.7505 12.3853 20.5551 12.0766 20.2953L1.69347 16.9519C1.22478 16.8009 0.935698 16.3313 1.01208 15.8449C1.08847 15.3584 1.50758 15 1.99998 15H13.998ZM14.4769 17.1165C14.3313 17.0393 14.1689 16.9993 14.0042 17L14 17H8.36815L12.8965 18.4581C13.0485 18.5071 13.1866 18.5917 13.2992 18.705C13.4153 18.8218 13.5586 18.9082 13.7161 18.9563C13.8737 19.0045 14.0407 19.0129 14.2023 18.981C14.3639 18.949 14.5152 18.8777 14.6426 18.7732C14.7699 18.6687 14.8695 18.5343 14.9325 18.3821C14.9954 18.2298 15.0198 18.0644 15.0034 17.9005C14.987 17.7365 14.9304 17.5792 14.8385 17.4424C14.7466 17.3056 14.6224 17.1937 14.4769 17.1165Z"></path></symbol><symbol id="thermometer" width="24" height="24" viewBox="0 0 24 24"><g clip-path="url(#clip0_10_1156)"><path fill-rule="evenodd" clip-rule="evenodd" d="M9.02513 1.02513C9.6815 0.368749 10.5717 0 11.5 0C12.4283 0 13.3185 0.368749 13.9749 1.02513C14.6313 1.6815 15 2.57174 15 3.5V14.259C15.762 14.8876 16.3434 15.7123 16.6785 16.6487C17.076 17.7597 17.1057 18.969 16.7632 20.0982C16.4207 21.2273 15.7241 22.2164 14.7764 22.9193C13.8286 23.6222 12.68 24.0017 11.5 24.0017C10.32 24.0017 9.17138 23.6222 8.22363 22.9193C7.27589 22.2164 6.57933 21.2273 6.23681 20.0982C5.8943 18.969 5.924 17.7597 6.32153 16.6487C6.65661 15.7123 7.23804 14.8876 8 14.259V3.5C8 2.57174 8.36875 1.6815 9.02513 1.02513ZM11.5 2C11.1022 2 10.7206 2.15804 10.4393 2.43934C10.158 2.72064 10 3.10218 10 3.5V14.76C10 15.094 9.83326 15.4059 9.55556 15.5915C8.93122 16.0086 8.45758 16.6155 8.20461 17.3225C7.95164 18.0295 7.93274 18.7991 8.1507 19.5176C8.36866 20.2362 8.81193 20.8656 9.41504 21.3129C10.0181 21.7602 10.7491 22.0017 11.5 22.0017C12.2509 22.0017 12.9819 21.7602 13.585 21.3129C14.1881 20.8656 14.6313 20.2362 14.8493 19.5176C15.0673 18.7991 15.0484 18.0295 14.7954 17.3225C14.5424 16.6155 14.0688 16.0086 13.4444 15.5915C13.1667 15.4059 13 15.094 13 14.76V3.5C13 3.10218 12.842 2.72064 12.5607 2.43934C12.2794 2.15804 11.8978 2 11.5 2Z"></path></g><defs><clipPath><rect width="24" height="24"></rect></clipPath></defs></symbol><symbol id="sunrise" width="24" height="24" viewBox="0 0 24 24"><path fill-rule="evenodd" clip-rule="evenodd" d="M7.75736 13.7574C8.88258 12.6321 10.4087 12 12 12C13.5913 12 15.1174 12.6321 16.2426 13.7574C17.3679 14.8826 18 16.4087 18 18C18 18.5523 17.5523 19 17 19C16.4477 19 16 18.5523 16 18C16 16.9391 15.5786 15.9217 14.8284 15.1716C14.0783 14.4214 13.0609 14 12 14C10.9391 14 9.92172 14.4214 9.17157 15.1716C8.42143 15.9217 8 16.9391 8 18C8 18.5523 7.55228 19 7 19C6.44772 19 6 18.5523 6 18C6 16.4087 6.63214 14.8826 7.75736 13.7574Z"></path><path fill-rule="evenodd" clip-rule="evenodd" d="M12 1C12.5523 1 13 1.44772 13 2V9C13 9.55228 12.5523 10 12 10C11.4477 10 11 9.55228 11 9V2C11 1.44772 11.4477 1 12 1Z"></path><path fill-rule="evenodd" clip-rule="evenodd" d="M3.51286 9.51289C3.90339 9.12237 4.53655 9.12237 4.92708 9.51289L6.34708 10.9329C6.7376 11.3234 6.7376 11.9566 6.34708 12.3471C5.95655 12.7376 5.32339 12.7376 4.93286 12.3471L3.51286 10.9271C3.12234 10.5366 3.12234 9.90342 3.51286 9.51289Z"></path><path fill-rule="evenodd" clip-rule="evenodd" d="M0 18C0 17.4477 0.447715 17 1 17H3C3.55228 17 4 17.4477 4 18C4 18.5523 3.55228 19 3 19H1C0.447715 19 0 18.5523 0 18Z"></path><path fill-rule="evenodd" clip-rule="evenodd" d="M20 18C20 17.4477 20.4477 17 21 17H23C23.5523 17 24 17.4477 24 18C24 18.5523 23.5523 19 23 19H21C20.4477 19 20 18.5523 20 18Z"></path><path fill-rule="evenodd" clip-rule="evenodd" d="M20.4871 9.51289C20.8776 9.90342 20.8776 10.5366 20.4871 10.9271L19.0671 12.3471C18.6766 12.7376 18.0434 12.7376 17.6529 12.3471C17.2624 11.9566 17.2624 11.3234 17.6529 10.9329L19.0729 9.51289C19.4634 9.12237 20.0966 9.12237 20.4871 9.51289Z"></path><path fill-rule="evenodd" clip-rule="evenodd" d="M0 22C0 21.4477 0.447715 21 1 21H23C23.5523 21 24 21.4477 24 22C24 22.5523 23.5523 23 23 23H1C0.447715 23 0 22.5523 0 22Z"></path><path fill-rule="evenodd" clip-rule="evenodd" d="M11.2929 1.29289C11.6834 0.902369 12.3166 0.902369 12.7071 1.29289L16.7071 5.29289C17.0976 5.68342 17.0976 6.31658 16.7071 6.70711C16.3166 7.09763 15.6834 7.09763 15.2929 6.70711L12 3.41421L8.70711 6.70711C8.31658 7.09763 7.68342 7.09763 7.29289 6.70711C6.90237 6.31658 6.90237 5.68342 7.29289 5.29289L11.2929 1.29289Z"></path></symbol><symbol id="list" width="24" height="24" viewBox="0 0 24 24"><path fill-rule="evenodd" clip-rule="evenodd" d="M7 6C7 5.44772 7.44772 5 8 5H21C21.5523 5 22 5.44772 22 6C22 6.55228 21.5523 7 21 7H8C7.44772 7 7 6.55228 7 6Z"></path><path fill-rule="evenodd" clip-rule="evenodd" d="M7 12C7 11.4477 7.44772 11 8 11H21C21.5523 11 22 11.4477 22 12C22 12.5523 21.5523 13 21 13H8C7.44772 13 7 12.5523 7 12Z"></path><path fill-rule="evenodd" clip-rule="evenodd" d="M7 18C7 17.4477 7.44772 17 8 17H21C21.5523 17 22 17.4477 22 18C22 18.5523 21.5523 19 21 19H8C7.44772 19 7 18.5523 7 18Z"></path><path fill-rule="evenodd" clip-rule="evenodd" d="M2 6C2 5.44772 2.44772 5 3 5H3.01C3.56228 5 4.01 5.44772 4.01 6C4.01 6.55228 3.56228 7 3.01 7H3C2.44772 7 2 6.55228 2 6Z"></path><path fill-rule="evenodd" clip-rule="evenodd" d="M2 12C2 11.4477 2.44772 11 3 11H3.01C3.56228 11 4.01 11.4477 4.01 12C4.01 12.5523 3.56228 13 3.01 13H3C2.44772 13 2 12.5523 2 12Z"></path><path fill-rule="evenodd" clip-rule="evenodd" d="M2 18C2 17.4477 2.44772 17 3 17H3.01C3.56228 17 4.01 17.4477 4.01 18C4.01 18.5523 3.56228 19 3.01 19H3C2.44772 19 2 18.5523 2 18Z"></path></symbol></svg>
