<svg width="447" height="330" viewBox="0 0 447 330" fill="none" xmlns="http://www.w3.org/2000/svg">
<g filter="url(#filter0_f_214_2)">
<g filter="url(#filter1_d_214_2)">
<path d="M339.752 297.763H196.728C182.854 297.752 169.521 292.375 159.522 282.757C149.522 273.139 143.631 260.025 143.082 246.162C142.532 232.298 147.367 218.759 156.573 208.38C165.78 198 178.645 191.584 192.475 190.476C194.448 176.549 200.736 163.592 210.457 153.426C220.177 143.26 232.841 136.397 246.665 133.804C260.489 131.21 274.778 133.016 287.523 138.967C300.267 144.917 310.825 154.714 317.712 166.979C330.342 162.607 343.988 162.096 356.91 165.511C369.832 168.927 381.443 176.114 390.263 186.156C399.084 196.199 404.712 208.64 406.432 221.895C408.152 235.149 405.885 248.616 399.919 260.576C396.419 271.382 389.585 280.802 380.398 287.483C371.212 294.163 360.145 297.762 348.786 297.763H339.752Z" fill="url(#paint0_linear_214_2)"/>
<path d="M348.786 297.015C354.553 297.015 360.224 296.095 365.64 294.278C370.878 292.522 375.795 289.959 380.255 286.661C384.664 283.4 388.529 279.494 391.742 275.052C394.996 270.554 397.508 265.607 399.208 260.346L399.226 260.292L399.251 260.242C401.513 255.723 403.254 250.943 404.427 246.034C405.634 240.983 406.246 235.764 406.246 230.521C406.246 226.009 405.792 221.5 404.895 217.12C404.022 212.851 402.718 208.652 401.021 204.639C399.355 200.699 397.292 196.899 394.89 193.344C392.512 189.823 389.78 186.512 386.77 183.503C383.761 180.494 380.45 177.762 376.929 175.383C373.374 172.981 369.574 170.919 365.634 169.252C361.622 167.555 357.423 166.252 353.154 165.378C348.773 164.482 344.264 164.027 339.752 164.027C332.281 164.027 324.948 165.257 317.956 167.681L317.366 167.886L317.06 167.342C311.37 157.224 303.094 148.728 293.125 142.77C288.084 139.757 282.668 137.429 277.027 135.85C271.208 134.221 265.164 133.395 259.062 133.395C250.855 133.395 242.844 134.872 235.251 137.785C227.916 140.6 221.187 144.665 215.251 149.868C209.349 155.041 204.452 161.145 200.694 168.01C196.844 175.044 194.328 182.636 193.215 190.576L193.132 191.171L192.534 191.218C185.841 191.742 179.401 193.504 173.394 196.455C167.558 199.323 162.345 203.202 157.903 207.984C148.774 217.811 143.747 230.614 143.747 244.035C143.747 251.187 145.148 258.126 147.91 264.657C149.238 267.796 150.882 270.824 152.795 273.656C154.69 276.462 156.867 279.1 159.265 281.498C161.663 283.895 164.301 286.072 167.106 287.968C169.939 289.881 172.966 291.524 176.106 292.852C182.637 295.615 189.575 297.015 196.728 297.015H339.752H348.786ZM348.786 297.763H339.752H196.728C167.055 297.763 143 273.708 143 244.035C143 215.793 164.79 192.64 192.475 190.473C197.055 157.794 225.122 132.648 259.062 132.648C284.242 132.648 306.189 146.487 317.711 166.976C324.616 164.581 332.032 163.28 339.752 163.28C376.888 163.28 406.993 193.385 406.993 230.521C406.993 241.324 404.446 251.531 399.919 260.576C392.943 282.155 372.687 297.763 348.786 297.763Z" fill="white" fill-opacity="0.5"/>
</g>
<path d="M123.148 233.763C177.548 233.763 221.648 189.439 221.648 134.763C221.648 80.0868 177.548 35.7629 123.148 35.7629C68.7479 35.7629 24.6479 80.0868 24.6479 134.763C24.6479 189.439 68.7479 233.763 123.148 233.763Z" fill="#FA9E42"/>
<g filter="url(#filter2_f_214_2)">
<path d="M116.03 120.684C148.767 103.296 167.077 73.7096 156.928 54.6004C146.778 35.4912 112.012 34.0957 79.2749 51.4835C46.5383 68.8714 28.228 98.4581 38.3778 117.567C48.5275 136.677 83.2938 138.072 116.03 120.684Z" fill="#F8E36F"/>
</g>
</g>
<defs>
<filter id="filter0_f_214_2" x="-4" y="-4" width="434.993" height="325.763" filterUnits="userSpaceOnUse" color-interpolation-filters="sRGB">
<feFlood flood-opacity="0" result="BackgroundImageFix"/>
<feBlend mode="normal" in="SourceGraphic" in2="BackgroundImageFix" result="shape"/>
<feGaussianBlur stdDeviation="2" result="effect1_foregroundBlur_214_2"/>
</filter>
<filter id="filter1_d_214_2" x="123" y="104.648" width="323.993" height="225.115" filterUnits="userSpaceOnUse" color-interpolation-filters="sRGB">
<feFlood flood-opacity="0" result="BackgroundImageFix"/>
<feColorMatrix in="SourceAlpha" type="matrix" values="0 0 0 0 0 0 0 0 0 0 0 0 0 0 0 0 0 0 127 0" result="hardAlpha"/>
<feOffset dx="10" dy="2"/>
<feGaussianBlur stdDeviation="15"/>
<feColorMatrix type="matrix" values="0 0 0 0 0.258824 0 0 0 0 0.627451 0 0 0 0 0.941176 0 0 0 0.596 0"/>
<feBlend mode="normal" in2="BackgroundImageFix" result="effect1_dropShadow_214_2"/>
<feBlend mode="normal" in="SourceGraphic" in2="effect1_dropShadow_214_2" result="shape"/>
</filter>
<filter id="filter2_f_214_2" x="15.5776" y="19.3032" width="164.15" height="133.561" filterUnits="userSpaceOnUse" color-interpolation-filters="sRGB">
<feFlood flood-opacity="0" result="BackgroundImageFix"/>
<feBlend mode="normal" in="SourceGraphic" in2="BackgroundImageFix" result="shape"/>
<feGaussianBlur stdDeviation="10" result="effect1_foregroundBlur_214_2"/>
</filter>
<linearGradient id="paint0_linear_214_2" x1="275.015" y1="132.65" x2="351.702" y2="318.06" gradientUnits="userSpaceOnUse">
<stop stop-color="white" stop-opacity="0.604"/>
<stop offset="1" stop-color="white" stop-opacity="0.2"/>
</linearGradient>
</defs>
</svg>
