<svg width="20" height="216" viewBox="0 0 20 216" fill="none" xmlns="http://www.w3.org/2000/svg">
<path d="M9.85841 215.622C9.80531 215.321 8.51327 209.382 7.00885 202.381C5.48673 195.398 4.24779 189.582 4.24779 189.44C4.24779 189.299 4.40708 189.034 4.60177 188.839C4.90265 188.539 5.18584 188.486 6.37168 188.486H7.78761V185.569V182.67L8.31858 182.069L8.84956 181.45L8.83186 105.115V28.7626L4.40708 25.0678L0 21.373V10.6954V0L2.17699 1.83854C7.80531 6.61168 9.89381 8.34415 10 8.34415C10.0531 8.34415 12.0708 6.70007 14.4602 4.68474C16.8496 2.65174 19.0796 0.777844 19.3982 0.51267L20 0.0176783V10.6954V21.373L15.5752 25.0678L11.1681 28.7626L11.1504 105.115V181.485L11.646 181.998C12.1239 182.493 12.1239 182.493 12.177 185.498L12.2301 188.486H13.4513C14.8673 188.486 15.5044 188.68 15.6637 189.175C15.7345 189.44 10.4425 214.65 10.0354 215.976C10 216.064 9.9292 215.905 9.85841 215.622Z" fill="white" fill-opacity="0.6"/>
</svg>
