<svg width="20" height="216" viewBox="0 0 20 216" fill="none" xmlns="http://www.w3.org/2000/svg">
<path d="M9.85841 0.378003C9.80531 0.678534 8.51327 6.61844 7.00885 13.619C5.48673 20.602 4.24779 26.4181 4.24779 26.5595C4.24779 26.701 4.40708 26.9661 4.60177 27.1606C4.90265 27.4611 5.18584 27.5142 6.37168 27.5142H7.78761V30.4311V33.3303L8.31858 33.9314L8.84956 34.5501L8.83186 110.885V187.237L4.40708 190.932L0 194.627V205.305V216L2.17699 214.161C7.80531 209.388 9.89381 207.656 10 207.656C10.0531 207.656 12.0708 209.3 14.4602 211.315C16.8496 213.348 19.0796 215.222 19.3982 215.487L20 215.982V205.305V194.627L15.5752 190.932L11.1681 187.237L11.1504 110.885V34.5148L11.646 34.0021C12.1239 33.5071 12.1239 33.5071 12.177 30.5018L12.2301 27.5142H13.4513C14.8673 27.5142 15.5044 27.3197 15.6637 26.8247C15.7345 26.5595 10.4425 1.35031 10.0354 0.0244375C10 -0.063954 9.9292 0.0951506 9.85841 0.378003Z" fill="white" fill-opacity="0.6"/>
</svg>
