<svg width="82" height="82" viewBox="0 0 82 82" fill="none" xmlns="http://www.w3.org/2000/svg">
<path d="M43.1737 0.675849C42.9174 0.739922 42.7252 0.944953 42.7252 1.1628C42.7252 1.31657 42.8341 1.44472 43.1352 1.65616C43.3018 1.77149 43.3082 1.79071 43.289 2.39299C43.2698 2.92479 43.257 3.01449 43.1545 3.03371C43.0007 3.06575 42.6419 2.79024 41.6167 1.84197C41.1234 1.39346 40.6044 0.944953 40.4634 0.848845C40.2007 0.663035 40.1815 0.663035 39.4255 0.688664C38.5605 0.7207 38.2722 0.816808 38.2017 1.10513C38.144 1.31657 38.2209 1.4319 38.5156 1.63053C38.6694 1.73304 38.7783 1.8676 38.8232 2.01496C38.9129 2.3161 38.9769 4.29594 38.9129 4.93666C38.868 5.42361 38.8552 5.44924 38.5861 5.71835C38.285 6.00667 38.2465 6.14122 38.4003 6.35907C38.5413 6.5641 38.9065 6.6538 39.5856 6.6538C40.2776 6.6538 40.6428 6.53207 40.7453 6.26937C40.835 6.02589 40.8222 5.99386 40.5403 5.73116C40.3097 5.51331 40.2712 5.44283 40.2135 5.05199C40.1431 4.6163 40.1751 4.12294 40.284 3.94995C40.3994 3.77055 40.6621 3.95636 41.7257 4.94948C43.4043 6.51925 43.7567 6.77554 44.0515 6.64099C44.3654 6.49362 44.4039 6.30781 44.4872 4.11013C44.532 2.97605 44.6025 1.97652 44.6409 1.874C44.6794 1.77789 44.8075 1.63693 44.9293 1.56646C45.2881 1.35502 45.3201 0.976989 44.9933 0.759143C44.8011 0.637406 43.5645 0.573333 43.1737 0.675849Z" fill="white"/>
<path d="M41.3412 7.69178C41.322 7.74304 40.944 10.5046 40.2776 15.4894L40.1431 16.4953L39.8163 16.5274C38.1696 16.7068 37.6442 16.7772 36.8946 16.9182C35.5106 17.1873 33.9216 17.6422 32.7363 18.1164C32.48 18.2189 32.2622 18.2894 32.2494 18.2829C32.2429 18.2701 32.1148 17.9498 31.961 17.5717C31.8073 17.1873 31.6599 16.8669 31.6407 16.8541C31.6214 16.8413 31.5638 16.8541 31.5253 16.8798C31.4677 16.9182 31.5189 17.104 31.7368 17.623C31.897 18.001 32.0251 18.3342 32.0251 18.3598C32.0251 18.3855 31.8008 18.5008 31.5317 18.6225C29.2572 19.6092 26.9057 21.1598 24.8618 23.0307L24.1955 23.633L23.1831 22.6206C22.3502 21.7941 22.158 21.6211 22.1195 21.7172C22.0875 21.8069 22.2925 22.0504 23.055 22.8129L24.0353 23.7932L23.465 24.4275C21.703 26.3689 20.2742 28.5153 19.2683 30.7258C19.0889 31.1295 18.9287 31.4754 18.9159 31.4883C18.9095 31.5011 18.5763 31.3729 18.1791 31.2128C17.6344 30.9885 17.4486 30.9372 17.4102 30.9949C17.3397 31.1102 17.3653 31.1295 18.1214 31.437C18.493 31.5844 18.8006 31.7125 18.8134 31.7189C18.8198 31.7253 18.7749 31.8599 18.7109 32.0137C18.5827 32.3148 18.2239 33.3592 18.0061 34.0576C17.6601 35.1724 17.2884 37.0305 17.1603 38.2543C17.0514 39.3499 17.0258 39.5037 16.9809 39.5037C16.9232 39.5037 8.87574 40.5865 8.56179 40.6314C8.36316 40.6634 8.32472 40.7019 8.3055 40.8621C8.28628 40.971 8.3055 41.0607 8.34394 41.0735C8.38239 41.0863 8.97826 41.1696 9.66383 41.2593C12.7201 41.6566 16.7566 42.2012 16.8784 42.2268C17.0001 42.2524 17.0193 42.3165 17.0578 42.8483C17.218 45.0972 17.7626 47.5512 18.5443 49.6143C18.6724 49.9347 18.7621 50.2358 18.7493 50.2743C18.7365 50.3127 18.4353 50.4665 18.0829 50.6075C17.7241 50.7548 17.4294 50.8958 17.423 50.9278C17.3653 51.1072 17.5191 51.088 18.1791 50.8189L18.9031 50.5306L19.0312 50.8317C20.0436 53.2088 21.6005 55.5987 23.4971 57.6875L24.1314 58.3858L23.1511 59.3662C22.363 60.1542 22.1772 60.3721 22.2348 60.4426C22.2925 60.5131 22.5039 60.3337 23.3048 59.5327L24.3044 58.5396L24.7529 58.9625C26.092 60.2247 27.7707 61.4549 29.5263 62.4609C29.8915 62.6723 31.724 63.5757 31.8841 63.627C32.0571 63.6782 32.0507 63.691 31.6983 64.5176C31.5061 64.9533 31.4677 65.107 31.5253 65.1455C31.5702 65.1711 31.6214 65.1967 31.6407 65.1967C31.6599 65.1967 31.8008 64.8764 31.9546 64.4919C32.1148 64.1011 32.2429 63.7872 32.2494 63.7872C32.2558 63.7872 32.5761 63.9025 32.9606 64.0498C34.8122 64.7482 36.9074 65.2416 38.8808 65.453C39.2525 65.4915 39.6946 65.5427 39.874 65.5684L40.1943 65.6132L40.6172 68.7528C40.8479 70.4763 41.1042 72.3921 41.1874 72.9944L41.3348 74.1028H41.5334H41.7385L41.841 73.3468C41.8987 72.9367 42.1549 71.0209 42.4176 69.0923L42.8854 65.5876L43.2057 65.5555C43.3851 65.5363 43.8593 65.4915 44.2629 65.453C46.1851 65.2672 48.7031 64.6521 50.5292 63.9217L50.8688 63.7872L50.9969 64.0947C51.0738 64.2613 51.202 64.5752 51.2917 64.7931C51.4006 65.0686 51.4775 65.1775 51.5415 65.1519C51.6633 65.107 51.6633 65.0942 51.375 64.4022C51.234 64.0627 51.1187 63.7615 51.1187 63.7295C51.1187 63.6975 51.2724 63.6077 51.4583 63.5309C52.2976 63.1721 53.7713 62.3904 54.5786 61.8778C55.2642 61.4421 55.45 61.314 56.1484 60.8014C57.103 60.103 57.6156 59.6673 58.7625 58.6101L58.9419 58.4435L59.9158 59.4174C60.6911 60.1927 60.9089 60.3785 60.973 60.3144C61.0371 60.2504 60.8513 60.0325 60.0824 59.2636L59.1085 58.2897L59.2943 58.0655C59.3968 57.9502 59.7364 57.5657 60.0504 57.2133C61.46 55.6436 62.6517 53.8367 63.7153 51.6518L64.2599 50.5306L64.9391 50.8125C65.3171 50.9663 65.6439 51.0816 65.6759 51.0624C65.8233 50.9663 65.6631 50.8509 65.0224 50.5946L64.324 50.3127L64.4906 49.8899C64.8494 48.948 65.1697 47.9421 65.4068 46.9682C65.7528 45.5586 65.8874 44.7128 66.0988 42.6817L66.1436 42.2332L68.5784 41.9064C69.9175 41.7206 71.8589 41.4643 72.8905 41.3234L74.7614 41.0735V40.8685C74.7614 40.7531 74.7358 40.657 74.7101 40.657C74.6781 40.657 74.1399 40.5865 73.5056 40.4968C72.8777 40.4135 70.9683 40.1508 69.264 39.9202C67.5596 39.6959 66.1436 39.4909 66.1052 39.4717C66.0732 39.4461 66.0475 39.2987 66.0475 39.1321C66.0475 38.3568 65.8041 36.8191 65.4068 35.0827C65.253 34.4228 64.7469 32.8146 64.4521 32.0841C64.3752 31.8983 64.3176 31.7381 64.3176 31.7253C64.3176 31.7125 64.6123 31.578 64.9775 31.4306C65.7015 31.1359 65.7848 31.0782 65.6887 30.9821C65.6311 30.9244 65.253 31.059 64.2791 31.469C64.2407 31.4883 64.1446 31.3473 64.0613 31.1615C63.8434 30.6489 63.1322 29.2329 62.8311 28.7139C61.9597 27.2146 60.8513 25.7282 59.5186 24.2673L58.9739 23.6714L59.9543 22.6911C60.8641 21.7813 61.0179 21.5635 60.7616 21.5635C60.7167 21.5635 60.2554 21.9991 59.7428 22.5374L58.8074 23.5113L58.6344 23.3511C57.0197 21.8646 55.7063 20.8715 54.1429 19.9424C53.4509 19.5259 51.8042 18.6802 51.2917 18.4623L51.0482 18.3662L51.1571 18.1228C51.5544 17.1745 51.6377 16.931 51.5544 16.8798C51.439 16.8093 51.4326 16.8221 51.1187 17.6038L50.8432 18.2829L50.5164 18.1548C48.3956 17.3219 45.916 16.758 43.3595 16.5274L42.9302 16.4953L42.8918 16.2262C42.8726 16.0789 42.6099 14.1118 42.3087 11.8565C42.0076 9.60114 41.7513 7.73022 41.7449 7.69819C41.7192 7.61489 41.3733 7.60848 41.3412 7.69178ZM39.7394 19.4939C39.7266 19.558 39.5728 20.7049 39.3934 22.044C39.214 23.3831 39.0538 24.5556 39.0346 24.6517C39.0026 24.7991 38.9577 24.8311 38.7014 24.8632C38.0223 24.9593 36.9459 25.254 35.9463 25.6128C35.6516 25.7217 35.3889 25.7794 35.3633 25.7538C35.3376 25.7217 35.2223 25.4655 35.107 25.1835C34.9852 24.9016 34.5496 23.838 34.1331 22.8257C33.7102 21.8069 33.3706 20.9548 33.3706 20.9227C33.3706 20.7882 35.7221 20.0642 37.3111 19.7118C37.7788 19.6028 39.1884 19.3978 39.5023 19.3914C39.7202 19.385 39.7586 19.4042 39.7394 19.4939ZM44.3975 19.4811C45.9544 19.6989 47.6203 20.0962 48.889 20.5639C49.7091 20.8651 49.7091 20.8651 49.7091 20.9355C49.7091 21.0124 47.7869 25.6705 47.7292 25.741C47.71 25.7666 47.4473 25.7025 47.1526 25.5936C46.3645 25.3181 45.5892 25.1002 44.7691 24.9401C44.0451 24.7927 44.0387 24.7863 44.0194 24.6005C43.9938 24.389 43.3787 19.7502 43.3403 19.5259C43.3147 19.353 43.4364 19.3465 44.3975 19.4811ZM34.1715 23.5177L35.1518 25.8883L34.1459 26.4009C32.9862 27.0032 32.6466 27.2146 31.6535 27.9515L30.9295 28.4897L30.6283 28.3039C30.4617 28.2013 29.6224 27.6631 28.7574 27.1057C27.8924 26.5483 26.989 25.9652 26.7455 25.8114L26.3098 25.5295L26.8032 25.0682C28.3602 23.633 30.167 22.4092 32.1725 21.4289C32.8452 21.1021 33.0951 21.006 33.1336 21.0701C33.1656 21.1085 33.6333 22.2106 34.1715 23.5177ZM50.9072 21.4097C52.7525 22.2747 54.5465 23.4664 56.1612 24.9144C56.4815 25.2028 56.7506 25.4719 56.7506 25.5103C56.757 25.5488 56.693 25.6385 56.6161 25.7089C56.4559 25.8563 52.3681 28.5473 52.304 28.5473C52.2848 28.5473 51.9901 28.3359 51.6441 28.0732C50.7022 27.3556 49.9654 26.9007 48.9018 26.3625L47.9343 25.8691L48.9146 23.5113C49.4592 22.2106 49.9141 21.1085 49.9269 21.0701C49.9654 20.974 49.9974 20.9804 50.9072 21.4097ZM26.4508 26.2535C26.6238 26.5098 27.2966 27.5286 27.9437 28.5153L29.1226 30.3093L28.6485 30.8924C28.0462 31.642 27.2581 32.9107 26.7968 33.8589C26.5982 34.269 26.4252 34.6086 26.4188 34.6214C26.4124 34.6278 26.1048 34.5125 25.7396 34.3523C25.3744 34.1985 24.298 33.75 23.3433 33.3528C22.395 32.9619 21.5941 32.6159 21.5685 32.5967C21.5044 32.5326 22.3886 30.7386 22.9076 29.8736C23.4202 29.0215 24.2275 27.8682 24.7913 27.1954C25.4064 26.465 26.0215 25.7922 26.0792 25.7922C26.1048 25.7922 26.2714 26.0037 26.4508 26.2535ZM57.5772 26.3368C58.4742 27.2723 59.4225 28.5473 60.2169 29.8608C60.7423 30.7258 61.5817 32.4237 61.5497 32.5326C61.524 32.6031 56.8596 34.5701 56.725 34.5637C56.693 34.5637 56.4687 34.1665 56.2316 33.6795C55.8024 32.7889 55.0463 31.5908 54.444 30.8411C54.271 30.6233 54.1365 30.4247 54.1429 30.399C54.1877 30.2773 57.0518 25.8627 57.0838 25.8563C57.1094 25.8563 57.3273 26.0741 57.5772 26.3368ZM38.7527 26.7982C38.7527 26.843 38.1376 31.4242 38.0607 31.9111L38.0159 32.2315L37.3303 30.5656C36.9523 29.6494 36.5166 28.5922 36.3628 28.2142L36.0745 27.535L36.5294 27.362C37.042 27.1698 38.4644 26.7597 38.6438 26.7597C38.7014 26.7533 38.7527 26.7725 38.7527 26.7982ZM45.3586 26.9712C46.089 27.1762 46.3709 27.2659 46.8386 27.4453L47.0052 27.5158L46.3068 29.2009C45.2176 31.8214 45.0831 32.1418 45.0574 32.1226C45.0382 32.097 44.327 26.9391 44.327 26.811C44.327 26.7149 44.5256 26.7469 45.3586 26.9712ZM48.4917 28.2142C49.2798 28.6434 50.6061 29.5405 50.6061 29.643C50.6061 29.6814 45.2625 33.2246 45.1984 33.2246C45.1856 33.2246 45.1599 33.1029 45.1471 32.9491C45.1151 32.6736 45.3137 32.1546 46.8707 28.4448L47.2231 27.5991L47.6459 27.7913C47.883 27.9002 48.261 28.086 48.4917 28.2142ZM36.933 30.2004C37.8493 32.4109 38.0415 32.9683 37.8813 32.9683C37.8685 32.9683 36.696 32.2187 35.28 31.3025C33.8576 30.3862 32.6722 29.6238 32.6338 29.6109C32.5505 29.5725 32.7683 29.3931 33.5308 28.8869C34.21 28.432 35.7157 27.6311 35.8246 27.6695C35.863 27.6824 36.3628 28.8229 36.933 30.2004ZM32.9606 36.1527L33.6846 37.2548L33.3258 37.2996C32.9862 37.3381 32.9157 37.3188 32.0315 36.96C29.0521 35.7363 28.1808 35.3646 28.1808 35.3006C28.1808 35.0571 29.1995 33.2438 29.789 32.4493L30.1798 31.924L31.2114 33.4873C31.7752 34.3459 32.5633 35.544 32.9606 36.1527ZM54.0468 33.5129C54.38 34.064 54.9886 35.2749 54.9502 35.307C54.9374 35.3198 53.8417 35.7747 52.5154 36.3257C50.4267 37.1907 49.7091 37.4406 49.7091 37.2868C49.7091 37.2676 50.4651 36.0887 51.3814 34.6598L53.0601 32.0649L53.3996 32.5326C53.5855 32.7889 53.8802 33.231 54.0468 33.5129ZM61.8956 33.3207C62.562 35.1084 62.9336 36.6141 63.1643 38.4657C63.2091 38.7925 63.2284 39.0744 63.2155 39.0872C63.1835 39.1193 57.8591 38.3889 57.8142 38.344C57.795 38.3184 57.7181 38.0301 57.6541 37.7033C57.5067 36.9985 57.2312 36.0246 56.9749 35.3262C56.8724 35.0571 56.8083 34.82 56.8211 34.8072C56.8403 34.7944 57.7502 34.41 58.8394 33.9615C59.935 33.5129 61.0114 33.0644 61.2421 32.9683C61.4728 32.8722 61.6778 32.8082 61.697 32.8338C61.7162 32.853 61.8059 33.0709 61.8956 33.3207ZM23.4522 33.6475C24.5158 34.0896 25.605 34.5381 25.8613 34.647C26.1112 34.7495 26.3227 34.8521 26.3227 34.8713C26.3227 34.8905 26.2265 35.166 26.1048 35.4928C25.8934 36.0566 25.5794 37.2163 25.4256 37.9788C25.3872 38.1838 25.3488 38.3504 25.3423 38.3568C25.2783 38.3825 19.941 39.1001 19.9218 39.0808C19.8129 38.9847 20.3255 36.1848 20.6522 35.0827C20.947 34.0768 21.3891 32.8402 21.4532 32.8402C21.4852 32.8402 22.3822 33.2054 23.4522 33.6475ZM55.309 36.1848C55.6486 37.1459 55.8664 38.0557 55.7639 38.0813C55.7191 38.0941 54.6234 37.9532 53.3164 37.7738C52.0157 37.6008 50.8752 37.4534 50.7791 37.4534C50.683 37.4534 50.6061 37.4342 50.6061 37.4021C50.6061 37.3637 54.9118 35.5505 55.0335 35.5376C55.0591 35.5312 55.1809 35.826 55.309 36.1848ZM30.3144 36.4923C31.4677 36.9665 32.4095 37.3701 32.4095 37.3893C32.4095 37.4278 27.3478 38.1133 27.3094 38.0749C27.2517 38.0236 27.8348 36.0246 28.0014 35.7042C28.0334 35.6402 28.0975 35.5953 28.1423 35.6081C28.1872 35.6209 29.1675 36.0182 30.3144 36.4923ZM22.6257 43.0021C24.0737 43.1943 25.2719 43.3609 25.2783 43.3737C25.2911 43.3865 25.3423 43.6236 25.3872 43.9055C25.5602 44.8794 25.9574 46.2762 26.2906 47.0835C26.3291 47.1668 26.2842 47.218 26.092 47.2949C24.9835 47.7691 21.4147 49.2299 21.4083 49.2171C21.3955 49.2107 21.2994 48.9608 21.1905 48.6597C20.6074 47.0643 20.2166 45.5009 20.0179 43.9567C19.8898 42.9316 19.8706 42.6433 19.9346 42.6433C19.9667 42.6433 21.1776 42.8034 22.6257 43.0021ZM63.2284 42.9444C63.2284 43.3609 62.94 45.1549 62.7478 45.975C62.5236 46.8849 62.1904 48.0125 61.9405 48.6533C61.7611 49.1338 61.7226 49.1851 61.6009 49.153C61.4215 49.1082 56.9364 47.2501 56.8724 47.1988C56.8467 47.1796 56.9685 46.7439 57.1415 46.2313C57.3145 45.7187 57.5451 44.873 57.6541 44.3476C57.763 43.8158 57.8591 43.3801 57.8719 43.3673C57.8975 43.3417 62.8119 42.6625 63.0554 42.6497C63.2219 42.6433 63.2284 42.6561 63.2284 42.9444ZM30.2311 44.0208C33.3001 44.4309 33.1207 44.3988 32.9541 44.4693C29.302 45.9814 28.2128 46.4235 28.1295 46.4364C28.0654 46.4492 27.9885 46.3402 27.886 46.0904C27.7579 45.7508 27.3414 44.2771 27.2517 43.8158C27.2133 43.6108 27.2197 43.6044 27.3927 43.6364C27.4888 43.6556 28.7702 43.8286 30.2311 44.0208ZM55.8921 43.7453C55.8792 43.8286 55.8152 44.0913 55.7639 44.3412C55.655 44.8281 55.3218 45.9238 55.1809 46.2634L55.0976 46.4748L53.2523 45.7059C52.2399 45.2895 51.1507 44.8409 50.8303 44.7128C50.2345 44.4757 50.0615 44.3732 50.2217 44.3732C50.2729 44.3668 51.5415 44.2002 53.0408 43.9952C54.5401 43.7838 55.8024 43.6172 55.8472 43.6108C55.8985 43.6044 55.9177 43.6556 55.8921 43.7453ZM51.2981 45.1485C52.2399 45.5393 53.4637 46.0455 54.0147 46.2762L55.0207 46.699L54.8285 47.0899C54.3159 48.1407 53.5919 49.3452 53.1241 49.9283C53.0088 50.0693 53.0024 50.0628 51.1956 47.3077C49.472 44.6936 49.3375 44.4501 49.5681 44.4373C49.5809 44.4373 50.3562 44.7577 51.2981 45.1485ZM31.9418 47.2949L30.1414 50.0885L29.994 49.9091C29.6032 49.4285 28.9432 48.3585 28.5524 47.5832L28.1167 46.7183L28.3281 46.6286C28.437 46.5837 29.5006 46.1416 30.6796 45.6547C31.8585 45.1677 32.9541 44.7128 33.1143 44.6423C33.2745 44.5654 33.4795 44.5078 33.5757 44.5078C33.7358 44.5014 33.6205 44.6872 31.9418 47.2949ZM59.0316 48.3585C60.0568 48.7814 61.0499 49.1979 61.2421 49.2812C61.5112 49.3901 61.5881 49.4542 61.5753 49.5439C61.5625 49.6079 61.3254 50.1205 61.0435 50.6908C60.2938 52.2157 59.4225 53.5676 58.3524 54.8683C57.7822 55.5474 57.1543 56.2266 57.0902 56.2266C57.0646 56.2266 56.7699 55.8037 56.4303 55.2783C56.0907 54.7594 55.4243 53.747 54.9502 53.023L54.0852 51.7031L54.6747 50.9214C55.3539 50.018 55.9625 49.0185 56.411 48.0638L56.725 47.3974L56.9493 47.4935C57.071 47.5448 58.0129 47.9356 59.0316 48.3585ZM26.7968 48.1983C27.3478 49.3196 27.7835 50.0244 28.4627 50.9342L29.0778 51.748L27.5913 54.0546L26.1048 56.3612L25.6243 55.8358C24.5799 54.7081 23.574 53.3498 22.7795 51.9914C22.363 51.2802 21.5108 49.5567 21.5364 49.4798C21.5493 49.4285 26.2265 47.4615 26.3547 47.4551C26.3931 47.4487 26.5918 47.7883 26.7968 48.1983ZM37.9838 49.1466C37.9838 49.3516 37.7788 49.8706 36.3372 53.3434C36.1129 53.888 35.9015 54.3621 35.8758 54.3877C35.8118 54.4518 34.9981 54.0802 34.2164 53.6253C33.4603 53.1832 32.5185 52.5104 32.5697 52.4527C32.6402 52.3823 37.8877 48.9288 37.939 48.9288C37.9646 48.9224 37.9838 49.0249 37.9838 49.1466ZM47.9022 50.7228C49.3375 51.6454 50.5356 52.4207 50.5612 52.4463C50.6253 52.504 49.6386 53.2024 48.8569 53.6573C48.2546 54.0097 47.2871 54.471 47.2551 54.4262C47.1718 54.3173 45.0959 49.1786 45.0959 49.0889C45.0959 49.0121 45.1279 48.9864 45.192 49.0121C45.2496 49.0313 46.467 49.8002 47.9022 50.7228ZM46.089 52.2093C46.6272 53.5099 47.0116 54.5287 46.9796 54.5543C46.8771 54.6504 45.5956 55.0605 44.9165 55.2271L44.2501 55.3809L44.2886 55.1822C44.3078 55.0669 44.468 53.8687 44.6474 52.5104C45.0062 49.7425 45.019 49.6848 45.0959 49.8194C45.1215 49.8706 45.57 50.947 46.089 52.2093ZM38.4387 52.5937C38.6374 54.0802 38.7911 55.3104 38.7783 55.3232C38.7335 55.3744 37.2214 54.9708 36.6319 54.7529L36.0809 54.5543L37.0484 52.2221C37.5802 50.9342 38.0287 49.8834 38.0479 49.8834C38.0671 49.8834 38.2401 51.1008 38.4387 52.5937ZM32.826 54.9388C33.172 55.163 33.8383 55.5346 34.2997 55.7589C34.7546 55.9895 35.1262 56.2074 35.1134 56.2458C35.0749 56.3932 33.1656 61 33.1207 61.0513C33.0567 61.1153 30.859 60.0005 30.0517 59.4943C28.9432 58.7959 27.7515 57.8733 26.6174 56.8417L26.3034 56.5534L27.7387 55.6115C28.5267 55.0925 29.5583 54.4134 30.0324 54.1058L30.891 53.5484L31.5381 54.0417C31.897 54.3108 32.4736 54.7209 32.826 54.9388ZM54.4568 54.9516C55.6678 55.7333 56.6994 56.406 56.7442 56.4445C56.8083 56.5085 56.7314 56.6175 56.3278 57.0019C55.3667 57.9181 54.0852 58.8856 52.7525 59.6865C51.8619 60.2247 50.0807 61.1089 50.0166 61.0449C49.991 61.0192 49.5361 59.9492 49.0043 58.6614C48.4661 57.3735 48.0176 56.2907 48.0048 56.2522C47.9855 56.2138 48.3828 55.9831 48.889 55.7333C49.8436 55.2591 51.0418 54.5031 51.7978 53.8944C52.0413 53.6958 52.2463 53.5356 52.2463 53.5356C52.2528 53.5356 53.2459 54.1763 54.4568 54.9516ZM36.177 56.5534C36.9202 56.8097 38.1889 57.1364 38.7655 57.2197C39.0474 57.2646 39.0667 57.2774 39.0987 57.5017C39.2717 58.6101 39.7779 62.6531 39.7522 62.6851C39.6946 62.7428 38.458 62.5826 37.4072 62.3776C35.9527 62.0956 33.3706 61.3076 33.3706 61.141C33.3706 61.1089 33.7935 60.071 34.3061 58.8344C34.8187 57.5914 35.2672 56.5149 35.2992 56.4316C35.3312 56.3548 35.3697 56.2907 35.3889 56.2907C35.4081 56.2907 35.7605 56.406 36.177 56.5534ZM47.8318 56.4316C48.0688 56.957 49.786 61.1666 49.7667 61.1858C49.7283 61.2114 48.8825 61.519 48.4597 61.6664C47.4922 61.9931 46.2748 62.3007 45.256 62.4737C44.4359 62.6082 43.3723 62.7236 43.3275 62.6787C43.289 62.6467 43.8465 58.2385 43.9874 57.4568C44.013 57.3094 44.0579 57.2518 44.1476 57.2518C44.5384 57.2518 46.4414 56.7648 47.1782 56.4765C47.7292 56.2586 47.7485 56.2586 47.8318 56.4316Z" fill="white"/>
<path d="M14.5333 17.0079C14.0912 17.0976 14.0271 17.2642 14.3411 17.5397L14.5333 17.7063V18.6417C14.5333 19.558 14.5333 19.5836 14.3731 19.7182C14.04 20.0065 14.277 20.2436 14.9113 20.2372C15.5457 20.2307 15.6994 20.0577 15.3983 19.6925C15.2573 19.5259 15.2381 19.4427 15.2509 19.1351C15.2637 18.8788 15.2958 18.7699 15.3663 18.7571C15.4175 18.7507 15.7955 19.0454 16.1992 19.4234C16.6029 19.7951 17.0129 20.141 17.109 20.1923C17.2692 20.2756 17.2948 20.2756 17.4166 20.1539C17.4935 20.077 17.5447 19.936 17.5511 19.7822C17.5511 19.6541 17.5768 19.1095 17.6024 18.5713C17.6472 17.6166 17.6536 17.5974 17.8202 17.4628C18.0317 17.2962 18.0381 17.1809 17.8523 17.0528C17.6857 16.9374 17.0706 16.9118 16.8143 17.0143C16.5964 17.0912 16.5964 17.3026 16.8079 17.5013C16.9745 17.655 17.0257 18.0395 16.9104 18.2253C16.8399 18.3342 16.7054 18.2445 15.9109 17.5269C15.2509 16.931 15.142 16.8926 14.5333 17.0079Z" fill="white"/>
<path d="M18.525 17.0079C18.0829 17.1232 18.0189 17.3026 18.3008 17.623C18.4161 17.7511 18.6276 18.2061 18.8582 18.834C19.2619 19.9232 19.4285 20.2372 19.6335 20.2692C19.8193 20.2948 19.8898 20.1923 20.1269 19.4875C20.2486 19.1479 20.3703 18.866 20.4024 18.866C20.4344 18.866 20.5433 19.1159 20.6522 19.4298C20.9021 20.1667 20.9726 20.282 21.1648 20.282C21.3827 20.282 21.4788 20.1154 21.9657 18.834C22.3566 17.7896 22.4463 17.6166 22.6962 17.4116C22.8179 17.309 22.8243 17.2642 22.709 17.1104C22.6 16.9631 22.0042 16.9054 21.7735 17.0271C21.5877 17.1296 21.5236 17.3795 21.671 17.4372C21.7287 17.4564 21.7735 17.5397 21.7671 17.6166C21.7607 17.8088 21.5557 18.3791 21.4788 18.4047C21.4467 18.4175 21.3506 18.2317 21.2673 17.9882C21.1264 17.5781 21.12 17.5397 21.2161 17.3923C21.2738 17.309 21.2994 17.2065 21.2738 17.1617C21.0687 16.8285 19.7873 16.9182 19.7873 17.2642C19.7873 17.3347 19.8193 17.4116 19.8578 17.4372C19.8962 17.4564 19.9667 17.5781 20.0179 17.6999C20.0948 17.8729 20.0948 17.9626 20.0372 18.174C19.9923 18.315 19.9282 18.4175 19.8898 18.4047C19.8578 18.3919 19.768 18.1996 19.6912 17.9754C19.5822 17.6486 19.5694 17.5269 19.6207 17.3859C19.6719 17.245 19.6655 17.1873 19.5822 17.104C19.4669 16.9887 18.8326 16.931 18.525 17.0079Z" fill="white"/>
<path d="M66.5281 17.45C66.0796 17.6038 65.7784 17.8537 65.5606 18.2445C65.4004 18.5328 65.3748 18.6546 65.3748 19.0646C65.3748 19.4747 65.4004 19.59 65.5478 19.8399C65.8938 20.4358 66.4384 20.7433 67.124 20.7433C68.3926 20.7433 69.1807 19.7118 68.8347 18.5136C68.572 17.5974 67.5148 17.1104 66.5281 17.45ZM67.2457 18.2445C67.5917 18.5585 67.8288 19.558 67.6237 19.8655C67.3738 20.25 66.9125 19.9232 66.6883 19.212C66.5153 18.6482 66.5217 18.3919 66.7139 18.1996C66.8869 18.0267 67.0086 18.0395 67.2457 18.2445Z" fill="white"/>
<path d="M61.7867 17.4564C61.6458 17.482 61.492 17.5205 61.4536 17.5461C61.3126 17.6294 61.3639 17.828 61.5497 17.9626L61.7227 18.0907L61.7419 19.0198C61.7611 19.9296 61.7611 19.9424 61.6009 20.1346C61.2806 20.5127 61.4407 20.6728 62.1199 20.6728C62.4211 20.6728 62.5684 20.6472 62.6581 20.5639C62.8183 20.4166 62.8119 20.3333 62.6197 20.1603C62.4723 20.0385 62.4531 19.9809 62.4723 19.6221C62.4851 19.3273 62.5172 19.2248 62.5876 19.212C62.6389 19.1992 63.0169 19.5003 63.4206 19.8719C64.2792 20.6664 64.4393 20.7625 64.6123 20.6408C64.7148 20.5639 64.7341 20.4166 64.7725 19.4298C64.8238 18.1932 64.843 18.0715 65.0608 17.8665C65.3428 17.6038 65.0993 17.3987 64.5098 17.3987C64.0741 17.3987 63.8691 17.4884 63.8691 17.6807C63.8691 17.764 63.9268 17.8729 63.9972 17.9177C64.0613 17.969 64.1254 18.0779 64.1318 18.1676C64.1574 18.4752 64.1254 18.7443 64.0613 18.7443C64.0293 18.7443 63.7986 18.5649 63.5423 18.3406C63.2924 18.1228 62.9657 17.8344 62.8183 17.7063C62.5236 17.4436 62.2352 17.3731 61.7867 17.4564Z" fill="white"/>
<path d="M77.7856 37.8122C76.549 38.139 75.6712 39.1129 75.4598 40.3751C75.1971 41.9705 76.3312 43.5403 77.997 43.8927C78.5609 44.008 78.8556 44.0144 79.4579 43.8991C81.2647 43.5531 82.3347 41.8616 81.9055 40.0291C81.7709 39.4525 81.5274 39.0168 81.111 38.6003C80.4766 37.9724 79.7718 37.7097 78.7339 37.7161C78.4007 37.7161 77.9714 37.7609 77.7856 37.8122ZM78.7851 39.1769C79.067 39.3243 79.4515 40.0804 79.6693 40.9069C79.8423 41.5733 79.759 42.278 79.4771 42.5087C79.3233 42.6369 78.8812 42.6176 78.6826 42.4703C78.2597 42.1627 77.8881 41.381 77.7279 40.4712C77.5293 39.3179 77.9906 38.7477 78.7851 39.1769Z" fill="white"/>
<path d="M3.9742 37.966C3.41677 38.0172 3.17329 38.1646 3.14126 38.4657C3.12844 38.6067 3.17329 38.7349 3.28221 38.8822C3.50647 39.1705 3.65383 39.6191 3.61539 39.8689C3.60258 39.9779 3.52569 40.2085 3.45521 40.3751C3.35269 40.5994 3.30144 40.657 3.24377 40.6058C3.19892 40.5673 3.04515 40.2085 2.90419 39.8049L2.65431 39.0744L2.76964 38.8181C2.917 38.4914 2.88497 38.2992 2.66071 38.1326C2.49412 38.0108 2.39161 37.998 1.57148 37.998C0.789799 37.998 0.623211 38.0172 0.405364 38.1262C-0.0815856 38.3696 -0.139251 38.7989 0.283627 39.0488C0.565545 39.2154 0.655247 39.414 1.501 41.6822C2.15454 43.4314 2.39802 43.9119 2.69275 44.0144C3.07718 44.149 3.31425 43.7966 3.79479 42.3549C4.10234 41.4259 4.18564 41.2401 4.24971 41.3106C4.26893 41.3298 4.44192 41.8103 4.63414 42.3742C5.1275 43.8478 5.24924 44.0529 5.60163 44.0529C6.00529 44.0529 6.21032 43.6876 7.00482 41.554C7.8762 39.1898 7.89543 39.1577 8.26064 38.895C8.51052 38.7156 8.57459 38.6323 8.57459 38.485C8.57459 38.171 8.4016 38.0301 7.93387 37.9724C6.71649 37.825 6.03733 38.2671 6.60116 38.8438L6.8062 39.0552L6.65883 39.5229C6.42817 40.2406 6.21032 40.6891 6.13344 40.6122C6.04373 40.5225 5.56319 39.241 5.56319 39.0808C5.56319 39.004 5.62086 38.8694 5.69774 38.7733C5.90277 38.517 5.84511 38.2159 5.56319 38.0877C5.30049 37.9596 4.62773 37.9083 3.9742 37.966Z" fill="white"/>
<path d="M62.3057 61.1858C61.9469 61.3204 61.7419 61.487 61.6137 61.7432C61.287 62.3712 61.6586 63.0311 62.5171 63.3451C62.9721 63.5052 63.0874 63.6142 62.9721 63.7551C62.7734 63.9922 62.2993 63.8192 61.9341 63.3771C61.6522 63.0375 61.4728 63.0759 61.4471 63.4796C61.4343 63.6398 61.4728 63.8769 61.524 63.9986C61.6009 64.1844 61.6778 64.2485 61.9918 64.3638C62.2993 64.4791 62.4595 64.4984 62.9208 64.4791C63.3949 64.4535 63.5167 64.4279 63.7794 64.2613C63.946 64.1588 64.1318 63.973 64.1958 63.8512C64.3624 63.5501 64.356 63.0631 64.1894 62.7876C64.0613 62.589 63.6192 62.3135 63.4142 62.3135C63.3629 62.3135 63.2027 62.2558 63.0554 62.1853C62.7414 62.0444 62.6773 61.8265 62.9272 61.7689C63.1194 61.7176 63.3309 61.8009 63.6384 62.0508C63.9396 62.2879 64.1254 62.2879 64.2407 62.038C64.3176 61.8842 64.3112 61.8265 64.1894 61.5702C64.0293 61.2435 63.9011 61.1538 63.6 61.1666C63.4846 61.173 63.2027 61.1602 62.9721 61.1346C62.6773 61.1025 62.4851 61.1217 62.3057 61.1858Z" fill="white"/>
<path d="M65.8169 61.1602C65.4324 61.2819 65.0096 61.6279 64.8045 61.9931C64.6379 62.2943 64.6059 62.4096 64.6059 62.794C64.6059 63.8192 65.3299 64.492 66.4256 64.492C67.1111 64.4855 67.675 64.1524 67.9889 63.5629C68.1747 63.2169 68.1875 62.3904 68.0081 62.0572C67.8416 61.7432 67.534 61.4293 67.2329 61.2691C66.9445 61.1217 66.15 61.0577 65.8169 61.1602ZM66.3294 61.8778C66.7779 62.0764 67.1239 63.3515 66.8164 63.659C66.669 63.8064 66.6242 63.8128 66.3999 63.7103C66.1821 63.6142 65.8681 62.9606 65.8169 62.5057C65.7848 62.2046 65.7976 62.1277 65.9194 61.9739C66.0732 61.7817 66.1052 61.7689 66.3294 61.8778Z" fill="white"/>
<path d="M15.5649 61.4293C15.0395 61.6087 14.7127 62.1853 14.8537 62.6915C14.9434 63.0247 15.3599 63.3899 15.866 63.5821C16.3722 63.7743 16.4555 63.8704 16.2312 64.0178C16.0775 64.1203 16.0518 64.1203 15.7891 64.0178C15.6097 63.9473 15.4175 63.8064 15.2702 63.6206C15.142 63.4668 14.9947 63.3386 14.9498 63.3386C14.7191 63.3386 14.6743 63.8512 14.8665 64.2677C15.0267 64.6201 15.9814 64.8508 16.6285 64.6906C17.455 64.4855 17.8843 63.7679 17.5704 63.108C17.4422 62.8453 17.1859 62.6787 16.6349 62.5057C16.1544 62.3583 16.0134 62.2366 16.1351 62.0892C16.2569 61.9483 16.5388 61.9739 16.7823 62.1533C16.904 62.2366 17.0642 62.3583 17.1475 62.416C17.2756 62.5121 17.3013 62.5121 17.4486 62.416C17.5575 62.3455 17.6088 62.2494 17.6088 62.1213C17.6088 61.9162 17.3974 61.5126 17.2564 61.4549C17.0578 61.378 15.7763 61.3588 15.5649 61.4293Z" fill="white"/>
<path d="M18.1278 61.4998C17.8395 61.6471 17.8138 61.7753 18.0381 62.0059C18.1791 62.1597 18.3585 62.5377 18.6596 63.3322C19.0312 64.3318 19.2555 64.7482 19.4156 64.7482C19.5566 64.7482 19.7232 64.4535 19.9154 63.8897C20.0243 63.5501 20.1397 63.2746 20.1717 63.2746C20.2037 63.2746 20.3127 63.5437 20.4216 63.8704C20.6587 64.5816 20.774 64.7611 20.9598 64.7354C21.1392 64.7098 21.3122 64.3894 21.6838 63.4027C22.1259 62.2046 22.2156 62.0188 22.3886 61.9291C22.5552 61.8394 22.5936 61.6215 22.4655 61.4934C22.3694 61.3973 21.6838 61.3908 21.5108 61.4805C21.3634 61.5638 21.3506 61.7817 21.4852 61.9291C21.5685 62.0252 21.5685 62.0764 21.4532 62.416C21.3827 62.621 21.2994 62.8133 21.2673 62.8453C21.2417 62.8709 21.1392 62.6915 21.0431 62.4352C20.8893 62.0188 20.8829 61.9675 20.9726 61.865C21.2289 61.5831 20.9982 61.4229 20.3447 61.4165C19.5822 61.4165 19.4669 61.5254 19.7232 62.0252C19.7937 62.1661 19.8513 62.3263 19.8513 62.384C19.8513 62.5506 19.7168 62.8901 19.6591 62.8581C19.6335 62.8453 19.5502 62.6531 19.4733 62.4352C19.3452 62.0956 19.3388 62.0188 19.4092 61.8522C19.4797 61.6728 19.4797 61.6407 19.3452 61.5382C19.1658 61.3908 18.3777 61.3716 18.1278 61.4998Z" fill="white"/>
<path d="M41.0913 75.0062C40.2584 75.128 39.5151 75.6854 39.2909 76.3582C39.1627 76.749 39.1948 77.4282 39.355 77.7357C39.6433 78.2995 40.1623 78.6904 41.1234 79.062C41.8922 79.3632 42.0204 79.4464 42.0204 79.6451C42.0204 79.8437 41.7449 79.9975 41.3925 79.9975C41.0401 79.9975 40.5211 79.7155 40.2392 79.3696C39.6433 78.6263 39.4575 78.5238 39.1948 78.7865C39.0666 78.9146 39.0602 78.9723 39.0859 79.4529C39.1243 80.0359 39.3101 80.51 39.5856 80.7151C39.8035 80.8753 40.3801 81.0675 40.8735 81.1444C42.4112 81.3942 43.7503 80.8945 44.2437 79.8821C44.391 79.5746 44.4231 79.44 44.4167 79.0364C44.4039 78.024 43.9169 77.5115 42.597 77.1142C41.7897 76.8707 41.4758 76.6593 41.559 76.4094C41.6872 76.0058 42.4753 76.0891 42.9815 76.5632C43.5709 77.1142 43.8208 77.1783 44.1412 76.8643C44.2885 76.7106 44.327 76.6209 44.327 76.3966C44.327 76.0378 44.0707 75.5188 43.7695 75.2497C43.5453 75.0575 43.5133 75.0511 43.1609 75.0895C42.9494 75.1087 42.6611 75.1023 42.5137 75.0703C42.0524 74.9678 41.4886 74.9422 41.0913 75.0062Z" fill="white"/>
</svg>
